<?xml version="1.0" encoding="utf-8"?>
<?xml-stylesheet type="text/xsl" href="rss1.xsl"?>
<rss version="2.0" xmlns:atom="http://www.w3.org/2005/Atom" xmlns:content="http://purl.org/rss/1.0/modules/content/" xmlns:dc="http://purl.org/dc/elements/1.1/" xmlns:media="http://search.yahoo.com/mrss/">
<channel>
 <title>Getty</title>
 <link>http://www.gettyimg.com/</link>
 <atom:link href="http://www.gettyimg.com/" rel="self" type="application/rss+xml" />

 
                <item>
                <title><![CDATA[【HD Live Performances】FEED - Halle - Together Again - Dick Clark's New Year's Rockin' Eve with Ryan Seacrest (2023) 720p HDTV Backhaul MPA2.0 H.264-TrollHD]]></title>
                <link><![CDATA[https://sharemania.us/threads/halle-together-again-dick-clarks-new-years-rockin-eve-with-ryan-seacrest-2023-720p-hdtv-backhaul-mpa2-0-h-264-trollhd.245619/]]></link>
                <description><![CDATA[<article>
<blockquote class="messageText SelectQuoteContainer ugc baseHtml">
<img src="https://images2.imgbox.com/14/da/uYUXjtNR_o.png" class="bbCodeImage LbImage" alt="[​IMG]" data-url="https://images2.imgbox.com/14/da/uYUXjtNR_o.png" style=""> <br>
<br>
<div class="bbCodeBlock bbCodeCode">
<div class="type">Code:</div>
<pre>General
ID                             : 1 (0x1)
Complete name                  : Y:\FTA Records\Halle - Together Again - Dick Clark's New Year's Rockin' Eve with Ryan Seacrest (2023) 720p HDTV Backhaul MPA2.0 H.264-TrollHD.ts
Format                         : MPEG-TS
File size                      : 1 010 MiB
Duration                       : 4 min 26 s
Overall bit rate mode          : Variable
Overall bit rate               : 31.7 Mb/s
Maximum Overall bit rate       : 35.5 Mb/s

Video
ID                             : 4113 (0x1011)
Menu ID                        : 1 (0x1)
Format                         : AVC
Format/Info                    : Advanced Video Codec
Format profile                 : High@L4.1
Format settings                : 2 Ref Frames
Format settings, CABAC         : No
Format settings, Reference fra : 2 frames
Format settings, GOP           : M=3, N=30
Codec ID                       : 27
Duration                       : 4 min 26 s
Bit rate                       : 30.0 Mb/s
Width                          : 1 280 pixels
Height                         : 720 pixels
Display aspect ratio           : 16:9
Frame rate                     : 59.940 (60000/1001) FPS
Standard                       : Component
Color space                    : YUV
Chroma subsampling             : 4:2:0
Bit depth                      : 8 bits
Scan type                      : Progressive
Bits/(Pixel*Frame)             : 0.543
Stream size                    : 954 MiB (94%)
Color range                    : Limited
Color primaries                : BT.709
Transfer characteristics       : BT.709
Matrix coefficients            : BT.709

Audio
ID                             : 4352 (0x1100)
Menu ID                        : 1 (0x1)
Format                         : MPEG Audio
Format version                 : Version 1
Format profile                 : Layer 2
Codec ID                       : 4
Duration                       : 4 min 26 s
Bit rate mode                  : Constant
Bit rate                       : 192 kb/s
Channel(s)                     : 2 channels
Sampling rate                  : 48.0 kHz
Frame rate                     : 41.667 FPS (1152 SPF)
Compression mode               : Lossy
Delay relative to video        : -41 ms
Stream size                    : 6.11 MiB (1%)
Language                       : English

</pre>
</div>
<div class="bbCodeBlock bbCodeVfcHH HiddenContent">
<div class="attribution type">Hidden Content:</div>
<blockquote>You must either reply or click 'Like' to see the hidden information contained here.</blockquote>
</div><br>
<br>
Cutted with:<br>
<b>tsMuxeR</b><br>
<br>
<img src="styles/default/xenforo/smilies/super_man-48.png" class="mceSmilie" alt=":super:" title="Super Man    :super:"><img src="styles/default/xenforo/smilies/super_man-48.png" class="mceSmilie" alt=":super:" title="Super Man    :super:"><img src="styles/default/xenforo/smilies/super_man-48.png" class="mceSmilie" alt=":super:" title="Super Man    :super:">
<div class="messageTextEndMarker">&nbsp;</div>
</blockquote>
</article>]]></description>
                <author><![CDATA[Dream66]]></author>
                </item>

                </channel></rss>